<svg version="1.1" id="Layer_1" xmlns="http://www.w3.org/2000/svg" xmlns:xlink="http://www.w3.org/1999/xlink" x="0px" y="0px"
	 width="100%" viewBox="0 0 410 410" enable-background="new 0 0 410 410" xml:space="preserve">
<path fill="#020202" opacity="1.000000" stroke="none" 
	d="
M411.000000,203.000000 
	C411.000000,205.041672 411.000000,207.083328 410.591675,209.723450 
	C409.429993,238.806747 403.812103,266.272736 391.177856,291.871185 
	C357.244476,360.624146 302.154114,399.904022 225.887085,409.149933 
	C219.937408,409.871246 213.962936,410.388123 208.000000,411.000000 
	C206.285645,411.000000 204.571289,411.000000 202.267517,410.591675 
	C173.193527,409.431000 145.723679,403.821167 120.128143,391.183044 
	C51.382278,357.238892 12.086119,302.156311 2.842159,225.876053 
	C2.201247,220.587296 1.612830,215.292160 1.000000,210.000000 
	C1.000000,207.629440 1.000000,205.258896 1.408245,202.282990 
	C2.569738,173.191391 8.187900,145.723526 20.824673,120.125252 
	C54.763386,51.375675 109.850609,12.092325 186.122314,2.839069 
	C191.411407,2.197398 196.707275,1.611718 202.000000,1.000000 
	C203.388885,1.000000 204.777786,1.000000 206.750610,1.407696 
	C236.878387,2.094837 265.349091,7.732424 291.877350,20.825048 
	C360.617218,54.750595 399.917725,109.840469 409.154083,186.116470 
	C409.834595,191.736420 410.387695,197.371796 411.000000,203.000000 
M210.049118,370.652893 
	C210.275818,370.653503 210.502518,370.654144 210.729218,370.654785 
	C210.616577,370.306763 210.503937,369.958740 210.331390,368.865479 
	C208.968353,365.172668 207.605331,361.479858 206.027710,357.205688 
	C210.260788,357.945221 213.908234,358.582458 218.236450,359.338593 
	C217.133057,357.106476 216.449951,355.616150 215.675751,354.174774 
	C205.351166,334.953186 195.011627,315.739624 184.685028,296.519104 
	C184.056320,295.348907 183.341400,294.188446 182.947845,292.935181 
	C181.661575,288.839081 183.103180,286.933044 187.376816,287.037384 
	C191.040787,287.126831 194.701920,287.333344 198.364319,287.487335 
	C214.453796,288.163757 230.543289,288.839874 247.375443,289.547333 
	C246.213043,287.485291 245.476440,286.064911 244.637512,284.707794 
	C235.352783,269.688416 225.947037,254.741898 216.863388,239.602051 
	C215.415039,237.188049 215.393127,233.918213 214.711761,231.044022 
	C217.503754,231.137436 220.512955,230.582870 223.051025,231.433716 
	C235.678238,235.666779 248.177902,240.279709 260.732666,244.730240 
	C262.353516,245.304810 264.033539,245.712585 265.686188,246.197632 
	C265.926910,245.829376 266.167664,245.461105 266.408417,245.092850 
	C264.376831,242.837173 262.345276,240.581497 259.378540,237.287521 
	C264.924927,238.704819 269.207947,239.799286 274.364655,241.117020 
	C269.857483,235.078918 265.973602,229.875809 261.659241,224.096039 
	C264.300568,224.406845 265.977203,224.604126 269.030853,224.963455 
	C252.560745,211.669525 237.172729,199.249008 221.625397,186.699890 
	C220.904556,187.538940 220.319733,188.106552 219.865616,188.764389 
	C195.730362,223.726349 171.637680,258.717804 147.413956,293.618347 
	C145.691849,296.099457 146.173706,297.539368 147.797379,299.651825 
	C158.864761,314.050903 169.809937,328.543884 180.797333,343.004486 
	C189.051086,353.867310 197.308975,364.726959 205.565018,375.588043 
	C205.915695,375.400970 206.266357,375.213867 206.617035,375.026794 
	C205.283981,372.073334 203.950912,369.119873 202.065430,364.942505 
	C205.323212,367.138824 207.577057,368.658325 210.049118,370.652893 
M288.351135,192.147003 
	C293.846985,199.270676 299.277344,206.446671 304.891815,213.475601 
	C306.067993,214.948105 307.752167,216.338913 309.492523,216.982727 
	C318.859528,220.447937 328.350983,223.576370 337.723236,227.028061 
	C340.228180,227.950623 341.550018,227.363342 343.088440,225.323669 
	C354.425446,210.293121 365.936432,195.393417 377.209198,180.315399 
	C378.324829,178.823120 378.890442,176.288147 378.556671,174.446426 
	C376.419647,162.655212 374.008667,150.912292 371.559753,139.180206 
	C371.130188,137.122223 370.478821,134.916824 369.282074,133.242599 
	C357.075348,116.165733 344.772797,99.156693 332.362549,82.227249 
	C331.302734,80.781479 329.414154,79.505554 327.677673,79.061638 
	C311.549072,74.938408 295.345367,71.108154 279.225037,66.953918 
	C276.060181,66.138336 274.544769,66.916054 272.861359,69.598915 
	C264.274292,83.284325 255.550674,96.886864 246.655441,110.373695 
	C244.926926,112.994446 245.000046,114.991783 246.209671,117.679329 
	C252.632889,131.950485 258.850464,146.314072 265.234161,160.603256 
	C266.241425,162.857895 267.543396,165.039612 269.033508,167.009628 
	C275.265198,175.248138 281.620514,183.393112 288.351135,192.147003 
M250.150711,364.349335 
	C253.530304,367.311920 256.726074,370.532959 260.369446,373.124786 
	C262.110962,374.363678 264.884735,375.273254 266.877167,374.851074 
	C277.774963,372.541748 288.595581,369.851624 299.390839,367.089661 
	C301.364136,366.584808 303.408844,365.476135 304.895203,364.084869 
	C323.732269,346.453400 342.518494,328.766510 361.156250,310.925140 
	C362.725037,309.423340 363.847412,306.747284 363.965027,304.551788 
	C364.757507,289.762207 365.311127,274.957733 365.755890,260.152496 
	C365.974152,252.887115 365.793701,245.609756 365.793701,238.106506 
	C365.231934,238.032974 364.601501,237.868240 363.974487,237.880280 
	C341.673584,238.308044 319.370544,238.672516 297.076599,239.339325 
	C295.204498,239.395309 292.887451,241.102325 291.631104,242.709747 
	C275.846710,262.905151 260.159576,283.177765 244.645523,303.581146 
	C243.093079,305.622894 242.153305,308.634277 242.095001,311.221893 
	C241.828781,323.035553 242.499664,334.889832 241.791870,346.666901 
	C241.337021,354.235321 243.145340,359.887329 250.150711,364.349335 
M106.760139,361.730164 
	C122.811577,370.777618 138.863022,379.825073 154.914459,388.872528 
	C155.325516,388.456543 155.736588,388.040588 156.147659,387.624603 
	C149.405655,347.171570 142.663651,306.718536 135.869186,265.950745 
	C122.574219,270.199158 109.776352,274.288757 96.978485,278.378326 
	C96.995644,278.582367 97.012802,278.786407 97.029961,278.990448 
	C99.432968,279.198792 101.835983,279.407166 105.062050,279.686890 
	C99.888245,283.723785 95.497208,287.149902 90.159500,291.314697 
	C95.357658,291.655579 99.346359,291.917145 104.305199,292.242310 
	C100.205894,295.325043 96.993607,297.740723 93.781319,300.156403 
	C98.253296,301.141907 102.374969,301.074768 106.493752,301.155304 
	C116.342026,301.347870 116.356194,301.371674 119.052170,310.730011 
	C121.197441,318.176727 123.301071,325.635437 125.539108,333.495972 
	C100.641296,325.941010 74.487175,300.876434 72.262566,270.667664 
	C70.175056,242.320816 91.938408,226.471252 116.530411,238.115860 
	C118.180161,238.897049 119.730148,239.897644 121.294815,240.848389 
	C131.260696,246.903900 141.211960,252.983429 151.185318,259.026550 
	C152.337982,259.724976 153.597168,260.247559 154.963379,260.929779 
	C154.963379,260.039764 155.068604,259.673309 154.948318,259.409790 
	C148.378113,245.016739 141.931488,230.563904 135.085175,216.302994 
	C133.664124,213.342911 131.198395,210.411621 128.457336,208.634079 
	C109.555344,196.376450 84.137070,199.395569 68.368797,215.509613 
	C57.403637,226.715210 52.096771,240.105118 51.367123,255.868942 
	C50.346149,277.926910 52.872047,299.093781 63.470268,318.801483 
	C73.404259,337.274048 88.586220,350.507080 106.760139,361.730164 
M158.818237,69.579231 
	C160.324524,118.630905 161.830795,167.682587 163.368530,217.758301 
	C188.438766,198.814224 212.750732,180.443130 237.062683,162.072037 
	C236.931824,161.731995 236.800964,161.391953 236.670105,161.051910 
	C233.578522,161.051910 230.486954,161.051910 226.620651,161.051910 
	C228.845764,159.149399 230.358475,157.855988 232.798721,155.769531 
	C229.013382,156.153595 226.542145,156.404343 224.070908,156.655075 
	C223.926285,156.333374 223.781677,156.011673 223.637070,155.689957 
	C227.781128,152.727448 231.925186,149.764923 236.069260,146.802414 
	C235.904678,146.533646 235.740082,146.264893 235.575500,145.996140 
	C219.078476,148.905090 202.581467,151.814041 184.906586,154.930695 
	C184.906586,151.081436 185.212875,147.789490 184.832138,144.579041 
	C184.309677,140.173615 185.706223,137.386215 189.433517,134.676285 
	C209.377762,120.175812 229.079575,105.341805 248.857391,90.612625 
	C250.125275,89.668396 251.327713,88.636276 252.560593,87.645050 
	C252.462769,87.344002 252.364944,87.042946 252.267120,86.741898 
	C229.538925,88.398323 206.810730,90.054749 184.082535,91.711174 
	C183.793701,91.197670 183.504852,90.684166 183.216019,90.170662 
	C184.840515,88.630951 186.259979,86.762108 188.121307,85.602562 
	C206.218628,74.328568 224.392838,63.178001 242.532654,51.972073 
	C243.569611,51.331497 244.498047,50.515270 246.344238,49.130116 
	C239.254013,49.619190 233.308350,50.029312 227.362701,50.439434 
	C227.291153,50.074650 227.219589,49.709862 227.148041,49.345078 
	C232.705444,45.196705 238.262833,41.048332 243.820236,36.899960 
	C243.625656,36.507805 243.431091,36.115654 243.236511,35.723499 
	C240.068771,35.723499 236.901047,35.723499 232.826721,35.723499 
	C238.067947,32.344193 242.419601,29.538445 246.771255,26.732695 
	C246.604446,26.401417 246.437637,26.070139 246.270828,25.738859 
	C216.954742,34.885483 187.638672,44.032104 158.804794,53.028278 
	C158.804794,58.634995 158.804794,63.620743 158.818237,69.579231 
M122.892708,60.460110 
	C119.894226,84.280846 116.895744,108.101578 113.800606,132.690155 
	C95.418976,119.284065 77.841225,106.464249 59.494884,93.083893 
	C56.801300,96.044479 54.509315,99.177231 51.616432,101.589287 
	C47.931511,104.661758 46.961613,108.256340 46.884399,112.896553 
	C46.587868,130.718002 45.675011,148.529373 45.394020,166.350845 
	C45.119194,183.781143 45.334209,201.219162 45.334209,217.532516 
	C54.070854,194.468918 63.314556,170.066772 72.724319,145.226242 
	C97.922165,164.673294 122.448296,183.601944 147.769333,203.144073 
	C146.354309,155.653961 144.980392,109.542938 143.567612,62.127934 
	C140.662247,66.184288 138.584946,69.084534 136.062683,72.606026 
	C135.293045,69.443192 134.724823,67.108009 134.010117,64.170891 
	C131.681808,67.137421 129.794266,69.542389 127.393272,72.601540 
	C126.353462,66.279610 125.466232,60.885288 124.578995,55.490971 
	C124.283241,55.487297 123.987488,55.483620 123.691734,55.479942 
	C123.444450,56.855980 123.197166,58.232018 122.892708,60.460110 
z"/>
<path fill="#FEFEFE" opacity="1.000000" stroke="none" 
	d="
M411.000000,202.531342 
	C410.387695,197.371796 409.834595,191.736420 409.154083,186.116470 
	C399.917725,109.840469 360.617218,54.750595 291.877350,20.825048 
	C265.349091,7.732424 236.878387,2.094837 207.167267,1.407696 
	C274.926666,1.000000 342.853333,1.000000 411.000000,1.000000 
	C411.000000,68.020737 411.000000,135.041702 411.000000,202.531342 
z"/>
<path fill="#FEFEFE" opacity="1.000000" stroke="none" 
	d="
M208.468658,411.000000 
	C213.962936,410.388123 219.937408,409.871246 225.887085,409.149933 
	C302.154114,399.904022 357.244476,360.624146 391.177856,291.871185 
	C403.812103,266.272736 409.429993,238.806747 410.591675,210.160950 
	C411.000000,276.927399 411.000000,343.854797 411.000000,411.000000 
	C343.645935,411.000000 276.291626,411.000000 208.468658,411.000000 
z"/>
<path fill="#FEFEFE" opacity="1.000000" stroke="none" 
	d="
M201.531342,1.000000 
	C196.707275,1.611718 191.411407,2.197398 186.122314,2.839069 
	C109.850609,12.092325 54.763386,51.375675 20.824673,120.125252 
	C8.187900,145.723526 2.569738,173.191391 1.408245,201.838837 
	C1.000000,135.072968 1.000000,68.145927 1.000000,1.000000 
	C67.687401,1.000000 134.375046,1.000000 201.531342,1.000000 
z"/>
<path fill="#FEFEFE" opacity="1.000000" stroke="none" 
	d="
M1.000000,210.468658 
	C1.612830,215.292160 2.201247,220.587296 2.842159,225.876053 
	C12.086119,302.156311 51.382278,357.238892 120.128143,391.183044 
	C145.723679,403.821167 173.193527,409.431000 201.839050,410.591675 
	C135.072968,411.000000 68.145927,411.000000 1.000000,411.000000 
	C1.000000,344.312592 1.000000,277.624969 1.000000,210.468658 
z"/>
<path fill="#FDBF11" opacity="1.000000" stroke="none" 
	d="
M288.140839,191.859680 
	C281.620514,183.393112 275.265198,175.248138 269.033508,167.009628 
	C267.543396,165.039612 266.241425,162.857895 265.234161,160.603256 
	C258.850464,146.314072 252.632889,131.950485 246.209671,117.679329 
	C245.000046,114.991783 244.926926,112.994446 246.655441,110.373695 
	C255.550674,96.886864 264.274292,83.284325 272.861359,69.598915 
	C274.544769,66.916054 276.060181,66.138336 279.225037,66.953918 
	C295.345367,71.108154 311.549072,74.938408 327.677673,79.061638 
	C329.414154,79.505554 331.302734,80.781479 332.362549,82.227249 
	C344.772797,99.156693 357.075348,116.165733 369.282074,133.242599 
	C370.478821,134.916824 371.130188,137.122223 371.559753,139.180206 
	C374.008667,150.912292 376.419647,162.655212 378.556671,174.446426 
	C378.890442,176.288147 378.324829,178.823120 377.209198,180.315399 
	C365.936432,195.393417 354.425446,210.293121 343.088440,225.323669 
	C341.550018,227.363342 340.228180,227.950623 337.723236,227.028061 
	C328.350983,223.576370 318.859528,220.447937 309.492523,216.982727 
	C307.752167,216.338913 306.067993,214.948105 304.891815,213.475601 
	C299.277344,206.446671 293.846985,199.270676 288.140839,191.859680 
M317.654266,185.986115 
	C314.272797,185.645676 310.891327,185.305237 307.220886,184.935699 
	C313.332001,191.295334 320.120544,194.514282 328.910156,194.054031 
	C336.811981,193.640274 350.016296,185.469971 352.194214,177.826706 
	C354.723389,168.950623 353.802917,159.940765 351.829651,149.823288 
	C349.959686,155.727112 348.880035,160.649872 346.850098,165.143326 
	C344.558289,170.216370 341.778992,175.164642 338.552032,179.697571 
	C333.624634,186.619095 325.858887,185.800262 317.654266,185.986115 
M320.233124,110.043694 
	C316.499237,105.179016 311.818481,105.440651 308.666748,110.690216 
	C306.025635,115.089287 306.350281,120.569099 310.668427,123.001175 
	C313.076965,124.357727 317.991577,124.257278 320.044128,122.629097 
	C324.290527,119.260590 323.933136,115.360565 320.233124,110.043694 
M281.249847,127.913353 
	C280.851562,128.214890 280.221375,128.440216 280.093170,128.830490 
	C279.332428,131.145859 277.615570,133.922775 278.322815,135.714447 
	C278.959381,137.326996 282.653168,139.090393 284.357208,138.592499 
	C286.674683,137.915344 289.526398,135.429962 290.067169,133.212372 
	C290.772156,130.321228 288.304901,128.114838 284.887115,127.962059 
	C283.903137,127.918083 282.924927,127.746689 281.249847,127.913353 
z"/>
<path fill="#00A1E5" opacity="1.000000" stroke="none" 
	d="
M249.883179,364.113708 
	C243.145340,359.887329 241.337021,354.235321 241.791870,346.666901 
	C242.499664,334.889832 241.828781,323.035553 242.095001,311.221893 
	C242.153305,308.634277 243.093079,305.622894 244.645523,303.581146 
	C260.159576,283.177765 275.846710,262.905151 291.631104,242.709747 
	C292.887451,241.102325 295.204498,239.395309 297.076599,239.339325 
	C319.370544,238.672516 341.673584,238.308044 363.974487,237.880280 
	C364.601501,237.868240 365.231934,238.032974 365.793701,238.106506 
	C365.793701,245.609756 365.974152,252.887115 365.755890,260.152496 
	C365.311127,274.957733 364.757507,289.762207 363.965027,304.551788 
	C363.847412,306.747284 362.725037,309.423340 361.156250,310.925140 
	C342.518494,328.766510 323.732269,346.453400 304.895203,364.084869 
	C303.408844,365.476135 301.364136,366.584808 299.390839,367.089661 
	C288.595581,369.851624 277.774963,372.541748 266.877167,374.851074 
	C264.884735,375.273254 262.110962,374.363678 260.369446,373.124786 
	C256.726074,370.532959 253.530304,367.311920 249.883179,364.113708 
M293.407593,325.271790 
	C284.026550,325.914337 283.312042,316.527771 278.275787,311.986084 
	C277.130219,312.470642 275.989563,312.792755 275.019623,313.391510 
	C271.082214,315.822144 265.993378,315.844971 263.203217,320.856293 
	C260.060425,326.500946 262.032257,331.206024 263.436279,336.503815 
	C264.765656,341.519989 267.084778,343.762695 272.402557,342.893066 
	C276.662323,342.196472 280.511993,342.714935 282.583923,347.582916 
	C283.064209,348.711395 285.489014,349.472015 287.080414,349.592712 
	C296.865082,350.334839 304.687866,344.294617 313.490845,341.596588 
	C314.113708,341.405701 314.956360,339.762146 314.717468,339.260529 
	C311.940948,333.430725 309.486267,327.305054 305.654114,322.234314 
	C304.833435,321.148376 298.840942,323.972900 295.229523,324.990936 
	C294.910248,325.080963 294.580475,325.133636 293.407593,325.271790 
M307.820007,281.134460 
	C315.287811,279.678589 318.841309,276.764160 318.967316,269.390564 
	C319.025757,265.968048 316.526855,260.422882 313.865143,259.447296 
	C307.489349,257.110443 301.339905,261.033722 298.174683,267.347137 
	C297.877319,267.940277 297.349152,268.521301 297.320709,269.126373 
	C297.230988,271.036835 296.533691,273.770813 297.503998,274.716736 
	C300.247375,277.391235 300.940369,283.484436 307.820007,281.134460 
M341.855957,286.653809 
	C340.070160,286.304321 338.298492,285.807709 336.495758,285.634369 
	C331.997101,285.201691 330.012451,287.468597 330.028473,291.874359 
	C330.049286,297.593719 335.073273,297.602570 338.073395,299.907837 
	C344.312500,294.301636 344.941040,292.448303 341.855957,286.653809 
z"/>
<path fill="#00A0E5" opacity="1.000000" stroke="none" 
	d="
M106.463120,361.523621 
	C88.586220,350.507080 73.404259,337.274048 63.470268,318.801483 
	C52.872047,299.093781 50.346149,277.926910 51.367123,255.868942 
	C52.096771,240.105118 57.403637,226.715210 68.368797,215.509613 
	C84.137070,199.395569 109.555344,196.376450 128.457336,208.634079 
	C131.198395,210.411621 133.664124,213.342911 135.085175,216.302994 
	C141.931488,230.563904 148.378113,245.016739 154.948318,259.409790 
	C155.068604,259.673309 154.963379,260.039764 154.963379,260.929779 
	C153.597168,260.247559 152.337982,259.724976 151.185318,259.026550 
	C141.211960,252.983429 131.260696,246.903900 121.294815,240.848389 
	C119.730148,239.897644 118.180161,238.897049 116.530411,238.115860 
	C91.938408,226.471252 70.175056,242.320816 72.262566,270.667664 
	C74.487175,300.876434 100.641296,325.941010 125.539108,333.495972 
	C123.301071,325.635437 121.197441,318.176727 119.052170,310.730011 
	C116.356194,301.371674 116.342026,301.347870 106.493752,301.155304 
	C102.374969,301.074768 98.253296,301.141907 93.781319,300.156403 
	C96.993607,297.740723 100.205894,295.325043 104.305199,292.242310 
	C99.346359,291.917145 95.357658,291.655579 90.159500,291.314697 
	C95.497208,287.149902 99.888245,283.723785 105.062050,279.686890 
	C101.835983,279.407166 99.432968,279.198792 97.029961,278.990448 
	C97.012802,278.786407 96.995644,278.582367 96.978485,278.378326 
	C109.776352,274.288757 122.574219,270.199158 135.869186,265.950745 
	C142.663651,306.718536 149.405655,347.171570 156.147659,387.624603 
	C155.736588,388.040588 155.325516,388.456543 154.914459,388.872528 
	C138.863022,379.825073 122.811577,370.777618 106.463120,361.523621 
z"/>
<path fill="#FBBE11" opacity="1.000000" stroke="none" 
	d="
M158.811523,69.092865 
	C158.804794,63.620743 158.804794,58.634995 158.804794,53.028278 
	C187.638672,44.032104 216.954742,34.885483 246.270828,25.738859 
	C246.437637,26.070139 246.604446,26.401417 246.771255,26.732695 
	C242.419601,29.538445 238.067947,32.344193 232.826721,35.723499 
	C236.901047,35.723499 240.068771,35.723499 243.236511,35.723499 
	C243.431091,36.115654 243.625656,36.507805 243.820236,36.899960 
	C238.262833,41.048332 232.705444,45.196705 227.148041,49.345078 
	C227.219589,49.709862 227.291153,50.074650 227.362701,50.439434 
	C233.308350,50.029312 239.254013,49.619190 246.344238,49.130116 
	C244.498047,50.515270 243.569611,51.331497 242.532654,51.972073 
	C224.392838,63.178001 206.218628,74.328568 188.121307,85.602562 
	C186.259979,86.762108 184.840515,88.630951 183.216019,90.170662 
	C183.504852,90.684166 183.793701,91.197670 184.082535,91.711174 
	C206.810730,90.054749 229.538925,88.398323 252.267120,86.741898 
	C252.364944,87.042946 252.462769,87.344002 252.560593,87.645050 
	C251.327713,88.636276 250.125275,89.668396 248.857391,90.612625 
	C229.079575,105.341805 209.377762,120.175812 189.433517,134.676285 
	C185.706223,137.386215 184.309677,140.173615 184.832138,144.579041 
	C185.212875,147.789490 184.906586,151.081436 184.906586,154.930695 
	C202.581467,151.814041 219.078476,148.905090 235.575500,145.996140 
	C235.740082,146.264893 235.904678,146.533646 236.069260,146.802414 
	C231.925186,149.764923 227.781128,152.727448 223.637070,155.689957 
	C223.781677,156.011673 223.926285,156.333374 224.070908,156.655075 
	C226.542145,156.404343 229.013382,156.153595 232.798721,155.769531 
	C230.358475,157.855988 228.845764,159.149399 226.620651,161.051910 
	C230.486954,161.051910 233.578522,161.051910 236.670105,161.051910 
	C236.800964,161.391953 236.931824,161.731995 237.062683,162.072037 
	C212.750732,180.443130 188.438766,198.814224 163.368530,217.758301 
	C161.830795,167.682587 160.324524,118.630905 158.811523,69.092865 
z"/>
<path fill="#00A0E5" opacity="1.000000" stroke="none" 
	d="
M209.830902,370.177826 
	C207.577057,368.658325 205.323212,367.138824 202.065430,364.942505 
	C203.950912,369.119873 205.283981,372.073334 206.617035,375.026794 
	C206.266357,375.213867 205.915695,375.400970 205.565018,375.588043 
	C197.308975,364.726959 189.051086,353.867310 180.797333,343.004486 
	C169.809937,328.543884 158.864761,314.050903 147.797379,299.651825 
	C146.173706,297.539368 145.691849,296.099457 147.413956,293.618347 
	C171.637680,258.717804 195.730362,223.726349 219.865616,188.764389 
	C220.319733,188.106552 220.904556,187.538940 221.625397,186.699890 
	C237.172729,199.249008 252.560745,211.669525 269.030853,224.963455 
	C265.977203,224.604126 264.300568,224.406845 261.659241,224.096039 
	C265.973602,229.875809 269.857483,235.078918 274.364655,241.117020 
	C269.207947,239.799286 264.924927,238.704819 259.378540,237.287521 
	C262.345276,240.581497 264.376831,242.837173 266.408417,245.092850 
	C266.167664,245.461105 265.926910,245.829376 265.686188,246.197632 
	C264.033539,245.712585 262.353516,245.304810 260.732666,244.730240 
	C248.177902,240.279709 235.678238,235.666779 223.051025,231.433716 
	C220.512955,230.582870 217.503754,231.137436 214.711761,231.044022 
	C215.393127,233.918213 215.415039,237.188049 216.863388,239.602051 
	C225.947037,254.741898 235.352783,269.688416 244.637512,284.707794 
	C245.476440,286.064911 246.213043,287.485291 247.375443,289.547333 
	C230.543289,288.839874 214.453796,288.163757 198.364319,287.487335 
	C194.701920,287.333344 191.040787,287.126831 187.376816,287.037384 
	C183.103180,286.933044 181.661575,288.839081 182.947845,292.935181 
	C183.341400,294.188446 184.056320,295.348907 184.685028,296.519104 
	C195.011627,315.739624 205.351166,334.953186 215.675751,354.174774 
	C216.449951,355.616150 217.133057,357.106476 218.236450,359.338593 
	C213.908234,358.582458 210.260788,357.945221 206.027710,357.205688 
	C207.605331,361.479858 208.968353,365.172668 210.220322,369.378967 
	C210.109253,369.892487 209.830902,370.177826 209.830902,370.177826 
z"/>
<path fill="#FBBE11" opacity="1.000000" stroke="none" 
	d="
M122.921295,60.034081 
	C123.197166,58.232018 123.444450,56.855980 123.691734,55.479942 
	C123.987488,55.483620 124.283241,55.487297 124.578995,55.490971 
	C125.466232,60.885288 126.353462,66.279610 127.393272,72.601540 
	C129.794266,69.542389 131.681808,67.137421 134.010117,64.170891 
	C134.724823,67.108009 135.293045,69.443192 136.062683,72.606026 
	C138.584946,69.084534 140.662247,66.184288 143.567612,62.127934 
	C144.980392,109.542938 146.354309,155.653961 147.769333,203.144073 
	C122.448296,183.601944 97.922165,164.673294 72.724319,145.226242 
	C63.314556,170.066772 54.070854,194.468918 45.334209,217.532516 
	C45.334209,201.219162 45.119194,183.781143 45.394020,166.350845 
	C45.675011,148.529373 46.587868,130.718002 46.884399,112.896553 
	C46.961613,108.256340 47.931511,104.661758 51.616432,101.589287 
	C54.509315,99.177231 56.801300,96.044479 59.494884,93.083893 
	C77.841225,106.464249 95.418976,119.284065 113.800606,132.690155 
	C116.895744,108.101578 119.894226,84.280846 122.921295,60.034081 
z"/>
<path fill="#00A0E5" opacity="1.000000" stroke="none" 
	d="
M210.250275,369.751587 
	C210.503937,369.958740 210.616577,370.306763 210.729218,370.654785 
	C210.502518,370.654144 210.275818,370.653503 209.940002,370.415344 
	C209.830902,370.177826 210.109253,369.892487 210.250275,369.751587 
z"/>
<path fill="#0C0901" opacity="1.000000" stroke="none" 
	d="
M318.120178,185.977112 
	C325.858887,185.800262 333.624634,186.619095 338.552032,179.697571 
	C341.778992,175.164642 344.558289,170.216370 346.850098,165.143326 
	C348.880035,160.649872 349.959686,155.727112 351.829651,149.823288 
	C353.802917,159.940765 354.723389,168.950623 352.194214,177.826706 
	C350.016296,185.469971 336.811981,193.640274 328.910156,194.054031 
	C320.120544,194.514282 313.332001,191.295334 307.220886,184.935699 
	C310.891327,185.305237 314.272797,185.645676 318.120178,185.977112 
z"/>
<path fill="#070501" opacity="1.000000" stroke="none" 
	d="
M320.462158,110.347588 
	C323.933136,115.360565 324.290527,119.260590 320.044128,122.629097 
	C317.991577,124.257278 313.076965,124.357727 310.668427,123.001175 
	C306.350281,120.569099 306.025635,115.089287 308.666748,110.690216 
	C311.818481,105.440651 316.499237,105.179016 320.462158,110.347588 
z"/>
<path fill="#0C0901" opacity="1.000000" stroke="none" 
	d="
M281.596954,127.773529 
	C282.924927,127.746689 283.903137,127.918083 284.887115,127.962059 
	C288.304901,128.114838 290.772156,130.321228 290.067169,133.212372 
	C289.526398,135.429962 286.674683,137.915344 284.357208,138.592499 
	C282.653168,139.090393 278.959381,137.326996 278.322815,135.714447 
	C277.615570,133.922775 279.332428,131.145859 280.093170,128.830490 
	C280.221375,128.440216 280.851562,128.214890 281.596954,127.773529 
z"/>
<path fill="#000406" opacity="1.000000" stroke="none" 
	d="
M293.831573,325.237732 
	C294.580475,325.133636 294.910248,325.080963 295.229523,324.990936 
	C298.840942,323.972900 304.833435,321.148376 305.654114,322.234314 
	C309.486267,327.305054 311.940948,333.430725 314.717468,339.260529 
	C314.956360,339.762146 314.113708,341.405701 313.490845,341.596588 
	C304.687866,344.294617 296.865082,350.334839 287.080414,349.592712 
	C285.489014,349.472015 283.064209,348.711395 282.583923,347.582916 
	C280.511993,342.714935 276.662323,342.196472 272.402557,342.893066 
	C267.084778,343.762695 264.765656,341.519989 263.436279,336.503815 
	C262.032257,331.206024 260.060425,326.500946 263.203217,320.856293 
	C265.993378,315.844971 271.082214,315.822144 275.019623,313.391510 
	C275.989563,312.792755 277.130219,312.470642 278.275787,311.986084 
	C283.312042,316.527771 284.026550,325.914337 293.831573,325.237732 
z"/>
<path fill="#000507" opacity="1.000000" stroke="none" 
	d="
M307.430450,281.228668 
	C300.940369,283.484436 300.247375,277.391235 297.503998,274.716736 
	C296.533691,273.770813 297.230988,271.036835 297.320709,269.126373 
	C297.349152,268.521301 297.877319,267.940277 298.174683,267.347137 
	C301.339905,261.033722 307.489349,257.110443 313.865143,259.447296 
	C316.526855,260.422882 319.025757,265.968048 318.967316,269.390564 
	C318.841309,276.764160 315.287811,279.678589 307.430450,281.228668 
z"/>
<path fill="#000A0E" opacity="1.000000" stroke="none" 
	d="
M342.237488,286.775330 
	C344.941040,292.448303 344.312500,294.301636 338.073395,299.907837 
	C335.073273,297.602570 330.049286,297.593719 330.028473,291.874359 
	C330.012451,287.468597 331.997101,285.201691 336.495758,285.634369 
	C338.298492,285.807709 340.070160,286.304321 342.237488,286.775330 
z"/>
</svg>